<?xml version="1.0" encoding="UTF-8"?>
<svg version="1.1" xmlns="http://www.w3.org/2000/svg" width="512" height="512">
<path d="M0 0 C5.275685 4.18173025 8.35653141 10.06547572 11.8125 15.75 C13.14978463 17.92004598 14.48836804 20.08929203 15.828125 22.2578125 C16.51583984 23.37317383 17.20355469 24.48853516 17.91210938 25.63769531 C21.24249107 31.00088717 24.65015115 36.31371682 28.0625 41.625 C29.39853243 43.70697034 30.73447043 45.78900127 32.0703125 47.87109375 C32.72290039 48.88800293 33.37548828 49.90491211 34.04785156 50.95263672 C36.58800955 54.91790085 39.11756719 58.88980215 41.640625 62.8659668 C42.82613355 64.72750515 44.01870814 66.58456481 45.21875 68.43676758 C47.698706 72.2766652 50.09773379 76.06794234 52.1328125 80.1640625 C57.83364653 91.23639379 66.27742513 93.8387668 77.49560547 98.01611328 C94.18648543 104.57336091 109.69335289 116.94996039 122.38330078 129.41845703 C124.08016529 131.07842204 125.80243954 132.70906801 127.52734375 134.33984375 C158.47026202 163.97300886 179.22554776 209.02841671 180.24153137 252.05158997 C180.35896508 259.48699767 180.3346584 266.92382157 180.23828125 274.359375 C180.22875931 275.11557632 180.21923737 275.87177765 180.20942688 276.65089417 C180.12502199 281.0148339 179.74665982 285.23089778 179.16796875 289.5625 C178.60086199 295.72269057 180.5736838 299.26468353 184 304.25 C184.53963379 305.09006592 185.07926758 305.93013184 185.63525391 306.7956543 C186.79741556 308.60303884 187.9718151 310.40260262 189.15722656 312.19482422 C191.6709202 316.02131334 194.083605 319.90749065 196.5 323.79589844 C198.39500246 326.84468104 200.30237887 329.88547063 202.2109375 332.92578125 C206.43849307 339.68145389 210.57229507 346.49249283 214.70141602 353.30859375 C219.82007419 361.74189432 225.04208581 370.10824761 230.29101562 378.4609375 C230.89236328 379.41871094 231.49371094 380.37648438 232.11328125 381.36328125 C232.64735596 382.21188721 233.18143066 383.06049316 233.73168945 383.93481445 C236.10660297 387.80187768 236.92613762 391.49676201 236 396 C234.63442993 398.10420227 234.63442993 398.10420227 232 400 C228.47727 400.58129525 224.98523354 400.47020287 221.42333984 400.40307617 C219.80795822 400.39689774 219.80795822 400.39689774 218.15994263 400.39059448 C215.82017084 400.37983019 213.48042688 400.36028024 211.14078903 400.33302879 C207.43252466 400.29265944 203.7252259 400.28121369 200.01675415 400.27839661 C189.47282104 400.26662574 178.92964731 400.21426176 168.38623047 400.11352539 C161.93633797 400.0539437 155.48754221 400.03830054 149.03740311 400.0496769 C146.58384045 400.04523032 144.13024693 400.02403 141.67698288 399.98549461 C126.60799771 399.10242652 126.60799771 399.10242652 113.65673828 405.37646484 C112.40516683 406.8912414 111.18165559 408.43007351 110 410 C107.96255493 411.67698669 107.96255493 411.67698669 106.15625 412.93359375 C105.55973633 413.34955811 104.96322266 413.76552246 104.34863281 414.1940918 C103.43355957 414.80957886 103.43355957 414.80957886 102.5 415.4375 C101.82549805 415.89358643 101.15099609 416.34967285 100.45605469 416.81958008 C80.27722148 430.23586489 58.5583554 439.36955763 35 445 C34.25508301 445.17934082 33.51016602 445.35868164 32.74267578 445.54345703 C-13.34464159 455.95627476 -64.26416469 444.73078358 -103.69140625 419.87109375 C-106.05836988 418.35855548 -108.23492708 416.80405562 -110.39484501 415.0025444 C-117.41166394 409.2853302 -122.34942834 407.85179428 -131.29272461 408.06347656 C-132.46808777 408.05897995 -133.64345093 408.05448334 -134.85443115 408.04985046 C-138.70475984 408.04357857 -142.55234614 408.09251027 -146.40234375 408.140625 C-149.08998262 408.14326531 -151.77737316 408.14237837 -154.46498108 408.13641357 C-160.7961024 408.12894532 -167.12639825 408.15850681 -173.45733601 408.20463252 C-184.81079251 408.28701692 -196.16428195 408.32402003 -207.51803213 408.32002425 C-212.1393148 408.32038756 -216.75955431 408.35650938 -221.38059998 408.40045166 C-223.79140986 408.40752532 -226.20222248 408.41373717 -228.61303711 408.41894531 C-229.71281387 408.43654404 -230.81259064 408.45414276 -231.94569397 408.47227478 C-232.95340851 408.46992325 -233.96112305 408.46757172 -234.99937439 408.46514893 C-236.31085654 408.47520399 -236.31085654 408.47520399 -237.64883327 408.48546219 C-240.82884804 407.82886183 -242.01830876 406.52374438 -244 404 C-245.18903001 396.62480035 -242.27869249 391.71432767 -238.75 385.375 C-238.20641846 384.36719482 -237.66283691 383.35938965 -237.1027832 382.32104492 C-235.41759228 379.20515535 -233.71036888 376.10212501 -232 373 C-231.01820601 371.19733573 -230.03767838 369.393981 -229.05859375 367.58984375 C-227.11038287 364.00494974 -225.15333114 360.42506127 -223.19140625 356.84765625 C-219.62844563 350.33696262 -216.12502008 343.79467812 -212.625 337.25 C-211.9954685 336.07339115 -211.36591122 334.89679609 -210.73632812 333.72021484 C-209.78709444 331.94617096 -208.83788259 330.17211542 -207.88876343 328.39801025 C-204.32734302 321.74145791 -200.76028414 315.08795987 -197.1875 308.4375 C-196.29828857 306.77799316 -196.29828857 306.77799316 -195.39111328 305.08496094 C-194.84310059 304.06563477 -194.29508789 303.04630859 -193.73046875 301.99609375 C-193.00960083 300.65309204 -193.00960083 300.65309204 -192.27416992 299.28295898 C-191 297 -191 297 -189 294 C-188.70053107 291.88954224 -188.70053107 291.88954224 -188.74462891 289.54223633 C-188.73419052 288.18724785 -188.73419052 288.18724785 -188.72354126 286.80488586 C-188.72453827 285.82384384 -188.72553528 284.84280182 -188.7265625 283.83203125 C-188.70621594 281.71809422 -188.68536439 279.604162 -188.6640625 277.49023438 C-188.64180419 274.18705219 -188.62512975 270.88406337 -188.61914062 267.58081055 C-188.45910574 215.14137953 -169.81352882 168.95258959 -133.4375 131.1875 C-128.8886204 126.81315775 -123.96557465 122.8869105 -119 119 C-118.17218018 118.3495874 -118.17218018 118.3495874 -117.32763672 117.68603516 C-81.79406329 90 -81.79406329 90 -65 90 C-64.77699219 89.34644531 -64.55398437 88.69289063 -64.32421875 88.01953125 C-62.54771925 83.96869316 -60.20608513 80.39893214 -57.8125 76.6875 C-56.72072773 74.97696217 -55.62961253 73.26600483 -54.5390625 71.5546875 C-53.96188477 70.65073242 -53.38470703 69.74677734 -52.79003906 68.81542969 C-49.72762936 63.99877547 -46.70868466 59.15507816 -43.6875 54.3125 C-42.74789429 52.80840576 -42.74789429 52.80840576 -41.78930664 51.27392578 C-38.55507843 46.09636151 -35.32471134 40.91641288 -32.09765625 35.734375 C-26.33463118 26.48503961 -20.5635361 17.24060004 -14.6875 8.0625 C-14.23729492 7.35230713 -13.78708984 6.64211426 -13.32324219 5.91040039 C-9.84903652 0.52049219 -6.59576793 -1.59249172 0 0 Z M-5 25 C-6.61836274 27.18100571 -6.61836274 27.18100571 -8.2734375 30.01953125 C-8.92707275 31.09477051 -9.58070801 32.17000977 -10.25415039 33.27783203 C-10.59979034 33.85390198 -10.9454303 34.42997192 -11.30154419 35.02349854 C-12.74657548 37.43176078 -14.20709385 39.83048738 -15.66682434 42.2298584 C-16.40363838 43.44135453 -17.13962742 44.6533528 -17.87480164 45.86584473 C-20.88136897 50.82184858 -23.95227979 55.73359404 -27.0625 60.625 C-31.50583656 67.62932655 -35.91879272 74.65192453 -40.3125 81.6875 C-41.25814819 83.20174561 -41.25814819 83.20174561 -42.22290039 84.74658203 C-43.5076015 86.80412772 -44.79218745 88.86174532 -46.07666016 90.91943359 C-49.21589223 95.94746487 -52.35807151 100.97365341 -55.5 106 C-56.75001464 107.99999085 -58.00001462 109.99999086 -59.25 112 C-81.75 148 -81.75 148 -83.62597656 151.00146484 C-84.87283846 152.99650885 -86.11958372 154.99162575 -87.36621094 156.98681641 C-90.53825947 162.06325476 -93.71248029 167.13831313 -96.890625 172.2109375 C-100.02802316 177.21876841 -103.15509044 182.23295533 -106.27929688 187.24902344 C-107.88851649 189.82176558 -109.51245778 192.38453608 -111.140625 194.9453125 C-123.23861807 214.11259043 -130.22386566 232.53021146 -130.125 255.5 C-130.12886719 256.39847656 -130.13273437 257.29695312 -130.13671875 258.22265625 C-130.12893038 263.57326459 -129.77926427 268.70595066 -129 274 C-124.87138312 269.2354348 -121.79290595 263.88742598 -118.5625 258.5 C-117.30145629 256.41235251 -116.0397233 254.32512124 -114.77734375 252.23828125 C-114.14296387 251.18850098 -113.50858398 250.1387207 -112.85498047 249.05712891 C-110.14010981 244.58284483 -107.38597367 240.13343526 -104.625 235.6875 C-99.79679682 227.90544204 -94.98565324 220.11312519 -90.1875 212.3125 C-89.51605957 211.22090576 -88.84461914 210.12931152 -88.15283203 209.00463867 C-86.78459668 206.77999176 -85.41643296 204.55530079 -84.04833984 202.33056641 C-80.70006312 196.88632432 -77.34995241 191.4432111 -74 186 C-72.66665758 183.83333892 -71.33332426 181.66667225 -70 179.5 C-21.71875 101.04296875 -21.71875 101.04296875 -19.89453125 98.08740234 C-18.52716455 95.859088 -17.17096487 93.62593772 -15.82421875 91.38525391 C-15.46235474 90.78707352 -15.10049072 90.18889313 -14.72766113 89.57258606 C-13.7090117 87.88803387 -12.69519257 86.20056359 -11.68164062 84.51293945 C-10 82 -10 82 -8 81 C-4.50651209 80.75278005 -1.00123564 80.81026297 2.5 80.8125 C4.03732788 80.8115332 4.03732788 80.8115332 5.60571289 80.81054688 C14.83794411 80.87355086 23.86476751 81.72266412 33 83 C31.40250169 78.37612989 28.93370332 74.60712215 26.25 70.5625 C25.25692802 69.04745439 24.26478745 67.53179796 23.2734375 66.015625 C22.74459961 65.20802734 22.21576172 64.40042969 21.67089844 63.56835938 C18.70282583 59.00609699 15.7917616 54.40766356 12.875 49.8125 C12.28267578 48.88236084 11.69035156 47.95222168 11.08007812 46.99389648 C8.43144647 42.83464819 5.7903181 38.67150151 3.1796875 34.48828125 C2.76348145 33.82658936 2.34727539 33.16489746 1.91845703 32.4831543 C0.83157669 30.75472841 -0.24855169 29.02206176 -1.328125 27.2890625 C-1.87984375 26.53367187 -2.4315625 25.77828125 -3 25 C-3.66 25 -4.32 25 -5 25 Z M-13 118 C-13 118.66 -13 119.32 -13 120 C-11.98353394 120.01401855 -11.98353394 120.01401855 -10.9465332 120.02832031 C25.80386904 120.66039873 57.63690026 129.12125145 87 152 C87.81017578 152.59506348 88.62035156 153.19012695 89.45507812 153.80322266 C92.16036724 156.13842905 93.6963535 158.28493068 95.53125 161.33984375 C96.16998047 162.39171875 96.80871094 163.44359375 97.46679688 164.52734375 C98.47323242 166.21537109 98.47323242 166.21537109 99.5 167.9375 C100.21318989 169.11779404 100.92739621 170.29747444 101.64257812 171.4765625 C103.08709226 173.85957176 104.52750115 176.24498312 105.96484375 178.63232422 C108.7725155 183.27832039 111.63283746 187.89057524 114.5 192.5 C119.35040071 200.3228607 124.17835356 208.1593896 129 216 C135.97942018 227.34612983 142.96140318 238.69045214 150 250 C150.84498047 251.35883301 150.84498047 251.35883301 151.70703125 252.74511719 C153.38366206 255.43699905 155.06581889 258.12533701 156.75 260.8125 C157.26401367 261.63806396 157.77802734 262.46362793 158.30761719 263.31420898 C158.77844727 264.06259033 159.24927734 264.81097168 159.734375 265.58203125 C160.14913086 266.24436768 160.56388672 266.9067041 160.99121094 267.58911133 C161.32411133 268.05470459 161.65701172 268.52029785 162 269 C162.33 269 162.66 269 163 269 C164.59919914 224.60377158 149.2551485 183.22901033 119.1875 150.4375 C117.47553198 148.60874657 115.74558151 146.79669664 114 145 C113.47229004 144.44892578 112.94458008 143.89785156 112.40087891 143.33007812 C108.21075123 139.02728073 103.78376737 135.25113564 99 131.625 C97.88915039 130.78255737 97.88915039 130.78255737 96.75585938 129.9230957 C73.29318785 112.39872416 46.33102138 101.61871734 17.36328125 97.48046875 C14 97 14 97 10.7109375 96.1640625 C-2.91922483 93.96153041 -8.11647102 107.16490025 -13 118 Z M-92.5 121.5 C-93.58595459 122.18340454 -93.58595459 122.18340454 -94.69384766 122.88061523 C-100.45668914 126.55775288 -105.83525819 130.51390174 -111 135 C-111.81726563 135.70769531 -112.63453125 136.41539062 -113.4765625 137.14453125 C-116.02075153 139.39334229 -118.51895108 141.68176992 -121 144 C-121.825 144.77085937 -122.65 145.54171875 -123.5 146.3359375 C-150.52607295 172.43298919 -169.61200235 212.17071182 -171.16113281 249.92724609 C-171.18061574 251.29257597 -171.19440396 252.65799647 -171.203125 254.0234375 C-171.21018463 254.76263931 -171.21724426 255.50184113 -171.22451782 256.26344299 C-171.52616482 278.31781451 -171.52616482 278.31781451 -168 300 C-167.80132324 300.81355957 -167.60264648 301.62711914 -167.39794922 302.46533203 C-164.25191895 315.16963854 -160.04294117 327.36285837 -154 339 C-153.59958496 339.89098389 -153.19916992 340.78196777 -152.78662109 341.69995117 C-151.1732126 344.29745071 -151.1732126 344.29745071 -148.08911133 344.56762695 C-146.9317749 344.54144287 -145.77443848 344.51525879 -144.58203125 344.48828125 C-142.70161133 344.46411133 -142.70161133 344.46411133 -140.78320312 344.43945312 C-138.81770508 344.37661133 -138.81770508 344.37661133 -136.8125 344.3125 C-135.47725471 344.28741661 -134.14196471 344.26460348 -132.80664062 344.24414062 C-129.53663293 344.18511522 -126.26887667 344.10281476 -123 344 C-124.20654182 340.85992378 -125.51744109 337.91593812 -127.171875 334.98828125 C-146.21014017 300.58762049 -151.98009837 257.95497427 -141.40869141 219.80297852 C-137.09763107 205.40982744 -129.49560922 192.86500726 -121.40625 180.3203125 C-117.5101014 174.27115034 -113.75761823 168.13582377 -110 162 C-105.18914815 154.15973367 -100.35496529 146.33641094 -95.4375 138.5625 C-94.71191895 137.41503296 -94.71191895 137.41503296 -93.97167969 136.24438477 C-91.89876736 132.97313791 -89.81625555 129.70890123 -87.70703125 126.4609375 C-87.06121094 125.46320313 -86.41539062 124.46546875 -85.75 123.4375 C-85.20859375 122.61121094 -84.6671875 121.78492188 -84.109375 120.93359375 C-82.83411738 119.08241311 -82.83411738 119.08241311 -83 117 C-86.59201782 117 -89.52847135 119.62629174 -92.5 121.5 Z M-39.12451172 160.37158203 C-41.63813543 165.31107563 -44.57948357 169.95858136 -47.5625 174.625 C-48.61181862 176.30967834 -49.65866263 177.99590034 -50.703125 179.68359375 C-51.23357422 180.53808105 -51.76402344 181.39256836 -52.31054688 182.27294922 C-55.48935115 187.40405381 -58.65031688 192.54614164 -61.8125 197.6875 C-62.48418213 198.77949707 -63.15586426 199.87149414 -63.84790039 200.99658203 C-65.21589606 203.2208193 -66.58381559 205.4451034 -67.95166016 207.66943359 C-71.29993688 213.11367568 -74.65004759 218.5567889 -78 224 C-79.33334242 226.16666108 -80.66667574 228.33332775 -82 230.5 C-84.66666667 234.83333333 -87.33333333 239.16666667 -90 243.5 C-90.6607251 244.5737085 -91.3214502 245.64741699 -92.00219727 246.75366211 C-93.32809729 248.90818888 -94.65410542 251.06264913 -95.98022461 253.21704102 C-99.06553541 258.22967477 -102.14986485 263.24290261 -105.23013306 268.25863647 C-106.31004956 270.01699357 -107.39032375 271.7751304 -108.47070312 273.53320312 C-109.81776342 275.72547773 -111.16416933 277.91815463 -112.50976562 280.11132812 C-113.12658203 281.11486328 -113.74339844 282.11839844 -114.37890625 283.15234375 C-115.26860107 284.61196533 -115.26860107 284.61196533 -116.17626953 286.10107422 C-117.42185965 288.08101225 -118.71741309 290.03016223 -120.05419922 291.94970703 C-123.89615498 297.34653898 -123.89615498 297.34653898 -125.15625 303.6796875 C-123.78731065 307.61076335 -122.30828348 311.37573079 -120.5 315.125 C-119.97249146 316.23270752 -119.97249146 316.23270752 -119.43432617 317.36279297 C-115.96093312 324.4409676 -111.69469956 330.67859125 -107 337 C-106.66206242 337.58917959 -106.32412484 338.17835918 -105.97594672 338.7853927 C-104.78745029 340.75596075 -103.63642195 342.3774781 -102 344 C-98.97725415 344.73253037 -96.99648129 344.96401691 -93.97367859 344.90907288 C-93.17059118 344.92210951 -92.36750376 344.93514614 -91.54008037 344.94857782 C-88.85100255 344.98350434 -86.16456981 344.96843748 -83.4753418 344.95336914 C-81.54669894 344.9677673 -79.61807608 344.98509793 -77.68948364 345.00514221 C-72.45155686 345.04989774 -67.21452518 345.04983597 -61.97645164 345.03907323 C-57.60270698 345.03384569 -53.22913996 345.04969631 -48.85542804 345.06532282 C-38.53506911 345.10157292 -28.21515809 345.10086331 -17.89477539 345.07739258 C-7.25207078 345.05383955 3.38912225 345.0925069 14.03159267 345.16192919 C23.17154783 345.21933995 32.31102484 345.23795437 41.45115155 345.22557729 C46.9089612 345.21858266 52.3657385 345.22625653 57.82338905 345.2712574 C62.95822022 345.3119101 68.09074743 345.3040231 73.22552109 345.25913048 C75.10724742 345.25071846 76.98913969 345.25927514 78.8706913 345.28626251 C88.93042564 345.69916625 88.93042564 345.69916625 97.84985924 341.83189201 C99.91317085 339.30555242 101.48241246 336.87989201 103 334 C103.85266499 332.65670822 104.70956459 331.31607483 105.57421875 329.98046875 C106.29078427 328.72298563 106.99531682 327.45856742 107.6875 326.1875 C108.24703369 325.17272583 108.24703369 325.17272583 108.81787109 324.13745117 C115.51669104 312.62129629 115.51669104 312.62129629 116 300 C114.77080857 297.41034542 114.77080857 297.41034542 113.18359375 294.7734375 C112.59255859 293.75572266 112.00152344 292.73800781 111.39257812 291.68945312 C110.74740234 290.59568359 110.10222656 289.50191406 109.4375 288.375 C108.7605258 287.2158111 108.08410377 286.05629957 107.40820312 284.89648438 C101.98565321 275.6089914 96.48838106 266.36497312 90.99072266 257.12182617 C85.72896064 248.26552791 80.56917387 239.35352788 75.43579102 230.42236328 C70.9574728 222.63835235 66.41415364 214.89546836 61.83422852 207.17089844 C57.36558121 199.63086393 52.94431708 192.06393865 48.53344727 184.48999023 C42.93735875 174.88372094 37.31352226 165.29382419 31.68457031 155.70678711 C31.33824554 155.11614975 30.99192078 154.52551239 30.63510132 153.91697693 C29.65283538 152.24429774 28.66610011 150.57424558 27.67919922 148.90429688 C26.31534188 146.54540665 25.0553931 144.16877638 23.8125 141.74609375 C22.26217064 138.87935782 22.26217064 138.87935782 19.6953125 137.9140625 C18.84710938 137.81867188 17.99890625 137.72328125 17.125 137.625 C16.1453125 137.50640625 15.165625 137.3878125 14.15625 137.265625 C13.1146875 137.17796875 12.073125 137.0903125 11 137 C9.9790625 136.89171875 8.958125 136.7834375 7.90625 136.671875 C5.62890913 136.46582987 3.34408407 136.33431373 1.05859375 136.26171875 C-2.05576667 136.14503791 -4.92055626 135.61414265 -7.96484375 134.95703125 C-26.69515078 131.77076986 -31.80743159 145.881758 -39.12451172 160.37158203 Z M47 148 C48.32100986 151.50410732 49.86567896 154.66958976 51.765625 157.89453125 C52.31839111 158.83707764 52.87115723 159.77962402 53.44067383 160.75073242 C54.03775146 161.76111572 54.6348291 162.77149902 55.25 163.8125 C56.53004726 165.99212916 57.80999245 168.17181827 59.08984375 170.3515625 C59.7432373 171.46176758 60.39663086 172.57197266 61.06982422 173.71582031 C63.99807575 178.69821844 66.9043585 183.69334805 69.8125 188.6875 C77.85060853 202.47262363 85.92607195 216.23584071 94 230 C96.89617437 234.93730005 99.79213294 239.87472648 102.6875 244.8125 C103.04268707 245.41822845 103.39787415 246.02395691 103.76382446 246.64804077 C109.0883729 255.72936321 114.39771195 264.81947187 119.69873047 273.91455078 C124.22557196 281.67870749 128.76639812 289.43461231 133.3125 297.1875 C133.66412201 297.7871759 134.01574402 298.38685181 134.37802124 299.00469971 C137.70047088 304.67073512 141.02382786 310.33623814 144.34765625 316.00146484 C146.29606248 319.3223869 148.24411727 322.6435149 150.19198608 325.9647522 C151.28368965 327.82588422 152.37584456 329.68675086 153.46801758 331.54760742 C154.76522934 333.75937307 156.06003581 335.97255219 157.35180664 338.1875 C158.33882998 339.87177031 159.33498492 341.55081291 160.34936523 343.21875 C163.20895204 347.97524034 163.63452341 350.56122789 163 356 C161.9375 357.9375 161.9375 357.9375 160 359 C158.9275 359 157.855 359 156.75 359 C152.27393992 360.19361602 151.97178233 360.99761431 149.625 364.8125 C149.05910156 365.79605469 148.49320312 366.77960938 147.91015625 367.79296875 C145.83952116 371.2694338 143.52924626 374.42540797 141.0625 377.625 C138.41514762 380.51410345 138.41514762 380.51410345 137 384 C162.08 384 187.16 384 213 384 C206.3837326 372.39467295 206.3837326 372.39467295 199.375 361.0625 C194.88957424 354.0318559 190.50708627 346.94617858 186.1875 339.8125 C181.35422879 331.83486013 176.457933 323.90076404 171.5 316 C166.0154652 307.2588238 160.61773125 298.46966489 155.26953125 289.64453125 C151.06983832 282.72683481 146.80104822 275.85507273 142.5 269 C137.01553453 260.25877978 131.6177319 251.46966596 126.26953125 242.64453125 C121.45538173 234.71470744 116.54292178 226.84907863 111.61206055 218.99145508 C107.28849233 212.0906879 103.03467596 205.15067357 98.8125 198.1875 C97.65647689 196.2928303 96.50023038 194.39829688 95.34375 192.50390625 C93.14757552 188.90342274 90.98539039 185.2854837 88.84375 181.65234375 C79.54074757 166.07747055 66.8275435 155.19029264 50 148 C49.01 148 48.02 148 47 148 Z M-182 317 C-182.45213867 317.85416504 -182.90427734 318.70833008 -183.37011719 319.58837891 C-193.5009652 338.72097258 -203.70479745 357.80677229 -214.1796875 376.75390625 C-214.9523999 378.15334473 -214.9523999 378.15334473 -215.74072266 379.58105469 C-216.72525303 381.36282852 -217.71181268 383.14348303 -218.70068359 384.92285156 C-219.13461426 385.70756836 -219.56854492 386.49228516 -220.015625 387.30078125 C-220.40008789 387.99341064 -220.78455078 388.68604004 -221.18066406 389.3996582 C-222.07595351 390.84870559 -222.07595351 390.84870559 -222 392 C-193.80863937 392.04685184 -165.61728464 392.08205319 -137.42589283 392.10362434 C-124.33428961 392.11390923 -111.24271067 392.12791589 -98.15112305 392.15087891 C-86.73210704 392.17089853 -75.31310864 392.18373666 -63.89407557 392.18817699 C-57.85544097 392.19076993 -51.81685668 392.1968055 -45.7782383 392.21146011 C-40.0778662 392.2251799 -34.37756447 392.22919399 -28.67717743 392.22621536 C-26.60095778 392.22675916 -24.52473542 392.23064988 -22.4485302 392.23841095 C14.35860811 392.36908398 50.81877288 386.99303772 79 361 C79 360.67 79 360.34 79 360 C77.68856364 359.99761165 76.37712729 359.99522329 75.02595043 359.99276257 C43.91615216 359.93544003 12.80643192 359.86273616 -18.30328294 359.77101372 C-22.12984129 359.75974515 -25.95640001 359.74860676 -29.78295898 359.73754883 C-30.54477882 359.73534514 -31.30659866 359.73314146 -32.09150394 359.730871 C-44.43729887 359.69546953 -56.78309374 359.67062151 -69.12892065 359.64965298 C-81.79076481 359.62791358 -94.45254293 359.59488098 -107.11433095 359.55129844 C-114.93142979 359.52474952 -122.7484463 359.50707806 -130.56558802 359.50065396 C-136.55323461 359.49479127 -142.54071825 359.47323935 -148.52830887 359.44572449 C-150.98941053 359.43689826 -153.45053666 359.43323108 -155.91165352 359.43499184 C-159.26080583 359.43663203 -162.60937733 359.42005261 -165.95845032 359.39872742 C-166.94190361 359.40357499 -167.9253569 359.40842257 -168.93861181 359.41341704 C-169.83285082 359.4039605 -170.72708984 359.39450396 -171.64842701 359.38476086 C-172.42191732 359.38286225 -173.19540763 359.38096365 -173.99233705 359.37900752 C-176.57179188 358.89205687 -177.44824519 358.09312556 -179 356 C-179.89711509 349.60805497 -178.29897543 345.95223581 -174.99609375 340.4921875 C-172.87898784 335.19527153 -175.61780032 329.80101808 -177.4375 324.6875 C-177.86933594 323.45386719 -178.30117187 322.22023438 -178.74609375 320.94921875 C-179.66808751 317.89589841 -179.66808751 317.89589841 -182 317 Z M128 322 C127.74943848 322.50225098 127.49887695 323.00450195 127.24072266 323.52197266 C118.77100336 340.37306498 109.28608582 354.59438538 96 368 C95.22398437 368.78890625 94.44796875 369.5778125 93.6484375 370.390625 C69.87180543 393.10507075 35.72365078 407.00002559 2.93383789 407.20532227 C1.94770508 407.21522186 0.96157227 407.22512146 -0.05444336 407.23532104 C-3.29538621 407.26676417 -6.53634369 407.29162518 -9.77734375 407.31640625 C-12.03178781 407.33699063 -14.28622813 407.35798749 -16.54066467 407.37937927 C-22.46055063 407.43444664 -28.38047054 407.4839233 -34.30041504 407.53222656 C-40.34679162 407.58255385 -46.39311921 407.6381812 -52.43945312 407.69335938 C-64.29292684 407.80075327 -76.14644319 407.90223959 -88 408 C-69.99276172 426.59734737 -30.20359765 431.40882988 -5.82617188 431.98632812 C39.77708179 432.2069382 81.40820659 414.44654737 114 383 C114.78761719 382.26394531 115.57523438 381.52789062 116.38671875 380.76953125 C124.8526681 372.65817664 131.6748421 363.20596943 138.1875 353.5 C138.58646484 352.92483643 138.98542969 352.34967285 139.39648438 351.75708008 C140.9948725 349.3044183 141.99832013 347.52412024 142.0078125 344.5625 C140.59402552 340.96775481 138.71667988 337.77915468 136.6875 334.5 C136.1006543 333.52353516 136.1006543 333.52353516 135.50195312 332.52734375 C133.23057234 328.79821111 130.8161546 325.35103065 128 322 Z " fill="#000000" transform="translate(260,32)"/>
</svg>
